<svg data-name="Grupo 265" xmlns="http://www.w3.org/2000/svg" width="139.75" height="141.567" viewBox="0 0 139.75 141.567">
    <defs>
        <clipPath id="io7p7k3oca">
            <path data-name="Rectángulo 196" style="fill:#ee1d93" d="M0 0h139.75v141.567H0z"/>
        </clipPath>
    </defs>
    <g data-name="Grupo 264" style="clip-path:url(#io7p7k3oca)">
        <path data-name="Trazado 242" d="M140.643.108C129.672.8 119.665 5.673 111.1 12.342c-10.459 8.14-18.2 19.916-20.633 33.02A123.856 123.856 0 0 0 88.781 65.6a85.538 85.538 0 0 0 2.407 21.9 77.052 77.052 0 0 0 16.088 32.069 126.9 126.9 0 0 0 14.912 14.11 34.711 34.711 0 0 0 9.046 5.789 29.48 29.48 0 0 0 11.452 2.134 31.48 31.48 0 0 0 11.765-2.3c6.682-2.782 12.625-7.316 17.818-12.3a80.3 80.3 0 0 0 20.8-33.9 126.712 126.712 0 0 0 3.721-16.858c1.233-7.322 2.265-14.734 1.612-22.17a60.708 60.708 0 0 0-17.181-36.7C173.234 9.141 163.15 3.086 151.808.9a45.843 45.843 0 0 0-11.165-.792 2.806 2.806 0 0 0-2.759 2.759 2.8 2.8 0 0 0 2.759 2.759 42.968 42.968 0 0 1 5.782.062q.676.054 1.35.13.291.033.581.07c-.124-.016-.447-.069.115.018.8.123 1.588.257 2.377.418a53.332 53.332 0 0 1 7.136 2.032 46.2 46.2 0 0 1 8.84 4.289q1.9 1.176 3.7 2.514c.149.111.821.628.382.285q.36.281.716.568.758.611 1.493 1.249c1.5 1.3 2.917 2.679 4.295 4.1q1.125 1.162 2.193 2.378.6.688 1.182 1.395.287.35.569.7l.287.363c.484.61-.328-.444.146.19a57.028 57.028 0 0 1 9.051 17.457 54.7 54.7 0 0 1 1.925 21.736 162.527 162.527 0 0 1-2.8 17.471 92.019 92.019 0 0 1-2.213 8.571 73.3 73.3 0 0 1-3.709 9.569 77.869 77.869 0 0 1-4.9 8.83q-.9 1.394-1.854 2.748-.548.775-1.115 1.537-.318.427-.642.85c.332-.435-.322.409-.4.511a70.157 70.157 0 0 1-15.231 14.358 51.641 51.641 0 0 1-4.214 2.594q-.859.47-1.739.9-.371.18-.746.352c-.191.087-1.144.474-.373.173a28.93 28.93 0 0 1-3.916 1.275c-.882.207-1.77.368-2.663.516-.5.083.03 0 .112-.011l-.437.054q-.521.06-1.045.1-1.159.094-2.322.1a24.279 24.279 0 0 1-4.811-.418 26.342 26.342 0 0 1-2.624-.653q-.678-.207-1.344-.449c-.237-.086-.472-.179-.707-.27-.288-.111.279.133-.177-.073a25.05 25.05 0 0 1-3.93-2.215c-.73-.5-1.122-.8-1.632-1.207a79.495 79.495 0 0 1-2.3-1.92c-2.526-2.176-5.051-4.356-7.486-6.634a69.241 69.241 0 0 1-12.415-14.949q-1.444-2.381-2.691-4.873-.772-1.546-1.471-3.127c-.123-.277-.243-.555-.364-.833-.055-.127-.257-.614-.045-.1l-.187-.451q-.44-1.072-.85-2.156a80.35 80.35 0 0 1-4.936-21.239 120.907 120.907 0 0 1 .123-17.77c.107-1.759.234-3.517.415-5.269a49.744 49.744 0 0 1 .715-4.934 47.044 47.044 0 0 1 3.066-10.028 52.361 52.361 0 0 1 5.113-8.966q.359-.507.73-1 .162-.218.327-.435c.276-.364-.217.275.062-.081q.728-.928 1.495-1.825 1.4-1.632 2.916-3.152 1.368-1.37 2.828-2.645.645-.563 1.306-1.108l.594-.482c.166-.133.941-.73.3-.245 1.313-1 2.654-1.953 4.042-2.845 1.556-1 3.137-1.969 4.756-2.864a52.623 52.623 0 0 1 3.73-1.876 36.644 36.644 0 0 1 3.749-1.442 38.873 38.873 0 0 1 9.787-1.913 2.809 2.809 0 0 0 2.76-2.765 2.794 2.794 0 0 0-2.757-2.758" transform="translate(-72.44 -.036)" style="fill:#ee1d93"/>
        <path data-name="Trazado 243" d="M166.2 305.459c.377-.352.762-.7 1.168-1.015.237-.186.052-.036 0 0q.184-.135.37-.265.465-.325.95-.621a14.437 14.437 0 0 1 3.73-1.651 19.354 19.354 0 0 1 1.891-.449c.279-.052.559-.1.84-.138-.447.06.337-.026.475-.038a22.689 22.689 0 0 1 3.144-.041q1.048.058 2.09.2c-.693-.1.228.047.451.088q.446.082.888.182.991.225 1.958.538c.566.184 1.128.386 1.676.617-.393-.165.186.091.3.145q.4.188.8.392a24.43 24.43 0 0 1 2.691 1.61q.3.207.595.423l.242.18c.418.3-.271-.237-.025-.019.3.269.632.514.938.783q.752.659 1.448 1.378a2.759 2.759 0 0 0 3.9-3.9 26.59 26.59 0 0 0-25.034-7.471 21.351 21.351 0 0 0-9.394 5.171 2.759 2.759 0 1 0 3.9 3.9" transform="translate(-131.803 -241.297)" style="fill:#ee1d93"/>
        <path data-name="Trazado 244" d="M428.653 299.806a25.083 25.083 0 0 0-18.933-3.351 23.717 23.717 0 0 0-10.437 5.178 24.114 24.114 0 0 0-4.347 4.375c-1.323 1.967-1.371 4.247-1.431 6.522q-.134 5.073-.157 10.15a2.759 2.759 0 0 0 5.518 0q.02-3.727.1-7.454.029-1.5.069-2.995c.013-.49.022-.98.044-1.469 0-.109.02-.23.015-.339q.041-.44-.027.067.03-.2.076-.392a3.06 3.06 0 0 1 .331-.936c.015-.028.553-.763.2-.341.1-.122.212-.239.323-.352.695-.714 1.459-1.369 2.2-2.041a55.589 55.589 0 0 1 1.609-1.417c.046-.039.517-.419.132-.115-.367.29.046-.034.106-.075.349-.242.7-.472 1.069-.69a18 18 0 0 1 5.043-2.1q1.019-.276 2.059-.469c.282-.052.564-.093.846-.14.454-.076-.3.043-.321.042a3.071 3.071 0 0 0 .378-.044 19.421 19.421 0 0 1 1.671-.092q.791-.012 1.581.035.381.022.761.059.224.02.447.046-.367-.057.138.02a23.232 23.232 0 0 1 2.921.66q.649.193 1.286.424l.545.2c.093.036.784.345.157.058a26.525 26.525 0 0 1 3.253 1.732 2.759 2.759 0 1 0 2.785-4.764" transform="translate(-321.004 -241.441)" style="fill:#ee1d93"/>
        <path data-name="Trazado 245" d="m353.744 482.251 9.409-7.527a2.776 2.776 0 0 0 0-3.9 2.825 2.825 0 0 0-3.9 0l-9.409 7.527a2.776 2.776 0 0 0 0 3.9 2.825 2.825 0 0 0 3.9 0" transform="translate(-284.845 -383.591)" style="fill:#ee1d93"/>
        <path data-name="Trazado 246" d="M288.272 560.96a31.438 31.438 0 0 0 17.2 4.6 24.789 24.789 0 0 0 15.974-7.119 2.759 2.759 0 0 0-3.9-3.9q-.474.458-.969.892-.214.187-.433.368c-.1.086-.814.636-.246.208a23.477 23.477 0 0 1-3.025 1.95q-.354.19-.714.366c-.085.042-.99.456-.611.294a18.619 18.619 0 0 1-1.943.689 16.826 16.826 0 0 1-4.454.748c-.706.023-1.413.01-2.118-.035-.367-.024-.731-.064-1.1-.1q-.505-.062-.032 0-.241-.034-.482-.073a34.415 34.415 0 0 1-3.649-.768 23.543 23.543 0 0 1-6.714-2.885 2.759 2.759 0 1 0-2.785 4.764" transform="translate(-234.147 -451.902)" style="fill:#ee1d93"/>
        <path data-name="Trazado 247" d="M5.518 27.085V2.759L2.759 5.518h23a2.79 2.79 0 0 0 2.759-2.759A2.807 2.807 0 0 0 25.758 0h-23A2.8 2.8 0 0 0 0 2.759v24.326a2.79 2.79 0 0 0 2.759 2.759 2.807 2.807 0 0 0 2.759-2.759" style="fill:#ee1d93"/>
        <path data-name="Trazado 248" d="M27.085 637.67H2.759l2.759 2.759v-23a2.79 2.79 0 0 0-2.759-2.759A2.807 2.807 0 0 0 0 617.43v23a2.8 2.8 0 0 0 2.759 2.759h24.326a2.759 2.759 0 1 0 0-5.518" transform="translate(0 -501.62)" style="fill:#ee1d93"/>
        <path data-name="Trazado 249" d="M627.789 610.217v24.326l2.759-2.759h-23a2.759 2.759 0 1 0 0 5.518h23a2.8 2.8 0 0 0 2.759-2.759v-24.326a2.759 2.759 0 0 0-5.517 0" transform="translate(-493.557 -495.735)" style="fill:#ee1d93"/>
        <path data-name="Trazado 250" d="M600.336 5.518h24.326L621.9 2.759v23a2.759 2.759 0 1 0 5.518 0v-23A2.8 2.8 0 0 0 624.662 0h-24.326a2.79 2.79 0 0 0-2.759 2.759 2.807 2.807 0 0 0 2.759 2.759" transform="translate(-487.671)" style="fill:#ee1d93"/>
    </g>
</svg>
