<svg xmlns="http://www.w3.org/2000/svg" width="108.324" height="97.574" viewBox="0 0 108.324 97.574">
    <g data-name="Grupo 2">
        <path data-name="Trazado 9" d="M3193.351 929.105h-10.325a10.128 10.128 0 0 0-20.1 0h-1.226a10.127 10.127 0 0 0-20.1 0h-.906a10.124 10.124 0 0 0-20.094 0h-1.575a10.127 10.127 0 0 0-20.1 0h-11.412a1.248 1.248 0 0 0-1.243 1.247v16.966a1.252 1.252 0 0 0 .365.878 1.235 1.235 0 0 0 .877.365h2.248v68a1.243 1.243 0 0 0 1.243 1.244h98.854a1.268 1.268 0 0 0 .878-.362 1.254 1.254 0 0 0 .367-.882v-68h2.243a1.248 1.248 0 0 0 1.248-1.243v-16.966a1.249 1.249 0 0 0-1.248-1.247zm-25.775-4.157a7.635 7.635 0 0 1 12.935 4.157h-15.073a7.657 7.657 0 0 1 2.138-4.157zm-21.324 0a7.646 7.646 0 0 1 10.807 0 7.714 7.714 0 0 1 2.134 4.157h-15.073a7.663 7.663 0 0 1 2.132-4.157zm-21 0a7.64 7.64 0 0 1 12.939 4.157h-15.073a7.647 7.647 0 0 1 2.13-4.157zm-21.67 0a7.641 7.641 0 0 1 12.938 4.157h-15.072a7.685 7.685 0 0 1 2.13-4.157zm85.041 90.367h-96.361v-5.653h96.361zm0-8.141h-96.361v-58.612h96.361zm3.489-61.1h-103.35V931.6h27.754a7.648 7.648 0 0 1-7.538 6.392 1.244 1.244 0 1 0 0 2.488 10.113 10.113 0 0 0 10.05-8.88h19.158a7.646 7.646 0 0 1-7.539 6.392 1.244 1.244 0 0 0 0 2.488 10.112 10.112 0 0 0 10.05-8.88h18.494a7.639 7.639 0 0 1-7.54 6.392 1.244 1.244 0 0 0 0 2.488 10.114 10.114 0 0 0 10.05-8.88h18.808a7.637 7.637 0 0 1-7.534 6.392 1.244 1.244 0 0 0 0 2.488 10.114 10.114 0 0 0 10.05-8.88h9.081z" transform="translate(-3086.275 -920.229)" style="fill:#ee158f"/>
        <path data-name="Trazado 10" d="M3104.444 996.928h14.6a1.227 1.227 0 0 0 .875-.362 1.261 1.261 0 0 0 .367-.882v-14.006a1.236 1.236 0 0 0-.367-.874 1.22 1.22 0 0 0-.875-.369h-14.6a1.249 1.249 0 0 0-.882.369 1.234 1.234 0 0 0-.361.874v14.005a1.234 1.234 0 0 0 1.243 1.244zm1.243-14h12.113v11.51h-12.113z" transform="translate(-3092.609 -942.756)" style="fill:#ee158f"/>
        <path data-name="Trazado 11" d="M3141.472 996.928h14.6a1.229 1.229 0 0 0 1.24-1.244v-14.006a1.229 1.229 0 0 0-.358-.874 1.254 1.254 0 0 0-.883-.369h-14.6a1.25 1.25 0 0 0-1.244 1.244v14.005a1.258 1.258 0 0 0 .363.882 1.242 1.242 0 0 0 .882.362zm1.244-14h12.108v11.51h-12.108z" transform="translate(-3106.463 -942.756)" style="fill:#ee158f"/>
        <path data-name="Trazado 12" d="M3104.444 1033.352h14.6a1.2 1.2 0 0 0 .875-.365 1.249 1.249 0 0 0 .367-.877v-14.01a1.252 1.252 0 0 0-.367-.88 1.232 1.232 0 0 0-.875-.365h-14.6a1.241 1.241 0 0 0-1.243 1.245v14.005a1.247 1.247 0 0 0 .361.877 1.23 1.23 0 0 0 .882.37zm1.243-14.005h12.113v11.522h-12.113z" transform="translate(-3092.609 -956.385)" style="fill:#ee158f"/>
        <path data-name="Trazado 13" d="M3141.472 1033.352h14.6a1.235 1.235 0 0 0 1.24-1.243V1018.1a1.244 1.244 0 0 0-.358-.88 1.266 1.266 0 0 0-.883-.365h-14.6a1.243 1.243 0 0 0-1.244 1.245v14.005a1.246 1.246 0 0 0 .363.877 1.217 1.217 0 0 0 .882.37zm1.244-14.005h12.108v11.522h-12.108z" transform="translate(-3106.463 -956.385)" style="fill:#ee158f"/>
        <path data-name="Trazado 14" d="M3176.415 996.928h14.6a1.245 1.245 0 0 0 .881-.362 1.274 1.274 0 0 0 .364-.882v-14.006a1.251 1.251 0 0 0-1.244-1.244h-14.6a1.249 1.249 0 0 0-1.24 1.244v14.005a1.254 1.254 0 0 0 .363.882 1.236 1.236 0 0 0 .876.363zm1.248-14h12.108v11.51h-12.112z" transform="translate(-3119.539 -942.756)" style="fill:#ee158f"/>
        <path data-name="Trazado 15" d="M3176.415 1033.352h14.6a1.219 1.219 0 0 0 .881-.365 1.262 1.262 0 0 0 .364-.877v-14.01a1.265 1.265 0 0 0-.364-.88 1.25 1.25 0 0 0-.881-.365h-14.6a1.243 1.243 0 0 0-1.24 1.245v14.005a1.242 1.242 0 0 0 .363.877 1.21 1.21 0 0 0 .877.37zm1.248-14.005h12.108v11.522h-12.112z" transform="translate(-3119.539 -956.385)" style="fill:#ee158f"/>
        <path data-name="Trazado 16" d="M3213.492 996.928h14.6a1.247 1.247 0 0 0 .879-.362 1.28 1.28 0 0 0 .365-.882v-14.006a1.254 1.254 0 0 0-.365-.874 1.24 1.24 0 0 0-.879-.369h-14.6a1.256 1.256 0 0 0-1.244 1.244v14.005a1.261 1.261 0 0 0 .367.882 1.243 1.243 0 0 0 .877.362zm1.243-14h12.113v11.51h-12.113z" transform="translate(-3133.411 -942.756)" style="fill:#ee158f"/>
        <path data-name="Trazado 17" d="M3213.492 1033.352h14.6a1.221 1.221 0 0 0 .879-.365 1.267 1.267 0 0 0 .365-.877v-14.01a1.27 1.27 0 0 0-.365-.88 1.252 1.252 0 0 0-.879-.365h-14.6a1.25 1.25 0 0 0-1.244 1.245v14.005a1.249 1.249 0 0 0 .367.877 1.217 1.217 0 0 0 .877.37zm1.243-14.005h12.113v11.522h-12.113z" transform="translate(-3133.411 -956.385)" style="fill:#ee158f"/>
    </g>
</svg>
