<svg xmlns="http://www.w3.org/2000/svg" width="139.228" height="98.51" viewBox="0 0 139.228 98.51">
    <g data-name="Grupo 258">
        <g data-name="Grupo 253">
            <g data-name="Grupo 252">
                <path data-name="Trazado 227" d="M2687.349 410.5h-6.786l-11.311 9.049v4.524h18.1a4.524 4.524 0 0 0 4.524-4.524v-4.524a4.524 4.524 0 0 0-4.527-4.525z" transform="translate(-2554.395 -386.129)" style="stroke-linejoin:round;stroke:#ee158f;stroke-linecap:round;stroke-width:3.5px;fill:none"/>
                <path data-name="Trazado 228" d="M2411.276 410.5h6.786l11.311 9.049v4.524h-18.1a4.524 4.524 0 0 1-4.524-4.524v-4.524a4.524 4.524 0 0 1 4.527-4.525z" transform="translate(-2405.002 -386.129)" style="stroke-linejoin:round;stroke:#ee158f;stroke-linecap:round;stroke-width:3.5px;fill:none"/>
                <g data-name="Grupo 250">
                    <path data-name="Trazado 229" d="M2422.015 483.2h0a7.321 7.321 0 0 0 6.548 4.047h104.058a7.321 7.321 0 0 0 6.548-4.047h0a45.113 45.113 0 0 0 4.763-20.177V461.2a13.569 13.569 0 0 0-3.976-9.6l-9.6-9.6h-99.534l-9.6 9.6a13.571 13.571 0 0 0-3.976 9.6v1.824a45.12 45.12 0 0 0 4.769 20.176z" transform="translate(-2410.978 -404.056)" style="stroke-linejoin:round;stroke:#ee158f;stroke-linecap:round;stroke-width:3.5px;fill:none"/>
                    <path data-name="Trazado 230" d="M2507.737 492.34h-54.291l-35.209-17.534a13.56 13.56 0 0 0-.985 5.059v1.824a45.119 45.119 0 0 0 4.763 20.177h0a7.321 7.321 0 0 0 6.548 4.046h104.058a7.321 7.321 0 0 0 6.548-4.047h0a45.113 45.113 0 0 0 4.763-20.177v-1.824a13.559 13.559 0 0 0-.985-5.059z" transform="translate(-2410.978 -422.726)" style="stroke-linejoin:round;stroke:#ee158f;stroke-linecap:round;stroke-width:3.5px;fill:none"/>
                    <path data-name="Rectángulo 152" d="M11.311 0h0a11.311 11.311 0 0 1 11.31 11.311v2.262h0H0h0v-2.262A11.311 11.311 0 0 1 11.311 0z" transform="rotate(180 60.822 48.38)" style="stroke-linejoin:round;stroke:#ee158f;stroke-linecap:round;stroke-width:3.5px;fill:none"/>
                    <path data-name="Trazado 236" d="M10.625 0H12a10.625 10.625 0 0 1 10.621 10.625v2.947H0v-2.947A10.625 10.625 0 0 1 10.625 0z" transform="rotate(180 20.103 48.38)" style="stroke:#ee158f;stroke-linecap:round;stroke-width:3.5px;fill:none"/>
                    <path data-name="Trazado 231" d="M2471.93 358h53.178a18.1 18.1 0 0 1 17.557 13.708l5.621 22.487h-99.534l5.622-22.487A18.1 18.1 0 0 1 2471.93 358z" transform="translate(-2428.905 -356.25)" style="stroke-linejoin:round;stroke:#ee158f;stroke-linecap:round;stroke-width:3.5px;fill:none"/>
                </g>
                <path data-name="Trazado 232" d="M2535.32 455.573h-37.747a9.049 9.049 0 0 1-6.4-2.65L2480.252 442h72.389l-10.923 10.922a9.048 9.048 0 0 1-6.398 2.651z" transform="translate(-2446.832 -404.056)" style="stroke-linejoin:round;stroke:#ee158f;stroke-linecap:round;stroke-width:3.5px;fill:none"/>
                <path data-name="Trazado 233" d="M2471.373 497.573h-22.621v-2.262A11.311 11.311 0 0 1 2460.063 484h0a11.31 11.31 0 0 1 11.311 11.311z" transform="translate(-2428.905 -427.959)" style="fill:#fff;stroke-linejoin:round;stroke:#ee158f;stroke-linecap:round;stroke-width:3.5px"/>
                <path data-name="Trazado 234" d="M2627.252 497.573h22.621v-2.262a11.31 11.31 0 0 0-11.31-11.311h0a11.311 11.311 0 0 0-11.311 11.311z" transform="translate(-2530.492 -427.959)" style="fill:#fff;stroke-linejoin:round;stroke:#ee158f;stroke-linecap:round;stroke-width:3.5px"/>
                <path data-name="Trazado 235" d="M2585.252 424.073a13.573 13.573 0 0 1 27.146 0" transform="translate(-2506.589 -386.129)" style="stroke-linejoin:round;stroke:#ee158f;stroke-linecap:round;stroke-width:3.5px;fill:none"/>
            </g>
        </g>
    </g>
</svg>
