<svg xmlns="http://www.w3.org/2000/svg" width="103.748" height="91.694" viewBox="0 0 103.748 91.694">
    <g data-name="Grupo 1">
        <path data-name="Trazado 4" d="M2929.856 974.443a40.773 40.773 0 1 0-69.6 28.835c.621.622 1.27 1.23 1.934 1.807l-11.069 11.069a1.194 1.194 0 0 0 1.689 1.688l11.224-11.228a40.751 40.751 0 0 0 50.431-.263l11.483 11.49a1.194 1.194 0 1 0 1.69-1.688l-11.346-11.34c.55-.5 1.095-1.007 1.622-1.535a40.659 40.659 0 0 0 11.942-28.835zm-13.627 27.146a38.391 38.391 0 1 1 11.242-27.146 38.277 38.277 0 0 1-11.241 27.146z" transform="translate(-2837.207 -926.497)" style="fill:#ee158f"/>
        <path data-name="Trazado 5" d="M2917.687 953.571a34.985 34.985 0 1 0 10.248 24.737 34.884 34.884 0 0 0-10.248-24.737zm-1.687 47.792a32.6 32.6 0 1 1 9.55-23.054 32.526 32.526 0 0 1-9.55 23.054z" transform="translate(-2841.072 -930.362)" style="fill:#ee158f"/>
        <path data-name="Trazado 6" d="m2926.276 999.889-9.548-11.485v-17.618a1.191 1.191 0 1 0-2.382 0v18.045a1.2 1.2 0 0 0 .271.765L2926.6 1004a1.192 1.192 0 0 0 1.832-1.527z" transform="translate(-2863.66 -940.884)" style="fill:#ee158f"/>
        <path data-name="Trazado 7" d="M2835.045 926.96a17.956 17.956 0 0 0-.7 24.65 1.2 1.2 0 0 0 .857.4 1.176 1.176 0 0 0 .873-.355l23.67-23.665a1.192 1.192 0 0 0-.049-1.727 17.951 17.951 0 0 0-24.65.7zm.275 22.081a15.572 15.572 0 0 1 21.807-21.815z" transform="translate(-2829.787 -921.699)" style="fill:#ee158f"/>
        <path data-name="Trazado 8" d="M2977.362 926.96a17.952 17.952 0 0 0-24.651-.7 1.182 1.182 0 0 0-.048 1.727l23.664 23.665a1.192 1.192 0 0 0 .879.355 1.207 1.207 0 0 0 .857-.4 17.966 17.966 0 0 0-.7-24.65zm-.275 22.078-21.813-21.812a15.572 15.572 0 0 1 21.813 21.812z" transform="translate(-2878.869 -921.699)" style="fill:#ee158f"/>
    </g>
</svg>
