<svg xmlns="http://www.w3.org/2000/svg" width="14" height="14" viewBox="0 0 14 14">
    <g fill="none" fill-rule="evenodd">
        <path d="M0 0L22 0 22 22 0 22z" transform="translate(-4 -4)"/>
        <path fill="white" fill-rule="nonzero" d="M16.775 5.234c-.357-.357-.935-.357-1.292 0L11 9.707 6.518 5.225c-.358-.357-.936-.357-1.293 0-.357.357-.357.935 0 1.293L9.707 11l-4.482 4.482c-.357.358-.357.936 0 1.293.357.358.935.358 1.293 0L11 12.293l4.482 4.482c.358.358.936.358 1.293 0 .358-.357.358-.935 0-1.292L12.293 11l4.482-4.482c.348-.349.348-.936 0-1.284z" transform="translate(-4 -4)"/>
    </g>
</svg>
