<svg data-name="Grupo 257" xmlns="http://www.w3.org/2000/svg" width="191.086" height="107.974" viewBox="0 0 191.086 107.974">
    <path data-name="Trazado 238" d="m863.27 1767.8-7.534-4.271-3.2 7.35-3.249-7.286-7.586 4.352 4.835 6.274-7.4-.956v8.634l7.434-.954-4.829 6.2 7.221 4.558 3.465-7.514 3.169 7.4 7.779-4.447-4.929-6.161 7.585.9v-8.621l-7.685 1.018z" transform="translate(-817.536 -1724.607)" style="fill:#ee1d93"/>
    <path data-name="Trazado 239" d="m1506.98 1767.8-7.534-4.271-3.2 7.351-3.249-7.286-7.586 4.352 4.835 6.274-7.4-.956v8.634l7.434-.954-4.828 6.2 7.221 4.558 3.464-7.514 3.169 7.395 7.78-4.447-4.929-6.161 7.585.9v-8.621l-7.685 1.018z" transform="translate(-1420.244 -1724.607)" style="fill:#ee1d93"/>
    <path data-name="Trazado 240" d="m2150.68 1767.8-7.534-4.271-3.2 7.351-3.249-7.286-7.586 4.352 4.835 6.274-7.4-.956v8.634l7.434-.954-4.828 6.2 7.22 4.558 3.465-7.514 3.168 7.395 7.78-4.447-4.93-6.161 7.585.9v-8.621l-7.685 1.018z" transform="translate(-2022.942 -1724.607)" style="fill:#ee1d93"/>
    <path data-name="Trazado 241" d="M644.985 1253.031h-6.671v7.364h20.706v-7.364h-6.671v-11.143h38.737v-72.978h-38.737v-9.125h6.671v-7.364h-20.706v7.364h6.671v9.125H500v72.978h144.985zm7.364-76.758h31.374v58.251h-31.374zm-144.985 58.251v-58.251h137.621v58.251z" transform="translate(-500 -1152.421)" style="fill:#ee1d93"/>
</svg>
