<svg xmlns="http://www.w3.org/2000/svg" width="335.324" height="437.05" viewBox="0 0 335.324 437.05">
    <defs>
        <linearGradient id="kkbscieg0a" x1=".5" x2=".5" y2="1" gradientUnits="objectBoundingBox">
            <stop offset="0" stop-color="#e8401f"/>
            <stop offset="1" stop-color="#f80790"/>
        </linearGradient>
    </defs>
    <g data-name="Grupo 29">
        <g data-name="Grupo 27">
            <path data-name="Trazado 63" d="M679.627 275.542a7.564 7.564 0 0 0 10.237-3.09 62.323 62.323 0 1 0-106.005 6.162 7.561 7.561 0 0 0 12.4-8.654 47.193 47.193 0 1 1 80.277-4.656 7.562 7.562 0 0 0 3.091 10.238z" transform="rotate(45 627.96 -302.56)" style="fill:url(#kkbscieg0a)"/>
            <path data-name="Trazado 64" d="M511.233 1050.487v-6.225l-40-70.109a16.114 16.114 0 0 1 13.967-24.086 16.158 16.158 0 0 1 14.016 8.133l12.018 21.063v-8.633a7.516 7.516 0 0 1 .5-2.677V949.7a31.217 31.217 0 0 0-53.634 31.946l59.431 104.176c-.087-.236-.182-.466-.268-.7a101.586 101.586 0 0 1-6.03-34.635z" transform="rotate(45 1294.856 105.135)" style="fill:url(#kkbscieg0a)"/>
            <path data-name="Trazado 65" d="M923.836 1101.512a7.56 7.56 0 0 1-15.12.042v68.382a87.207 87.207 0 0 1-87.108 87.107h-.983a87.063 87.063 0 0 1-87.107-87.107v-65.746a7.557 7.557 0 0 1-14.625-2.677V1087.4a7.519 7.519 0 0 0-.5 2.677v79.858a101.591 101.591 0 0 0 6.032 34.632c.085.237.182.467.268.7a102.459 102.459 0 0 0 95.93 66.894h.983a102.345 102.345 0 0 0 102.23-102.228v-79.9z" transform="rotate(45 1542.623 -85.207)" style="fill:url(#kkbscieg0a)"/>
            <path data-name="Trazado 66" d="M720.69 576.045v14.112a7.561 7.561 0 0 0 15.122 0v-124.19a16.1 16.1 0 1 1 32.21 0v124.19a7.561 7.561 0 0 0 7.561 7.561c.083 0 .166-.01.248-.013a7.554 7.554 0 0 1-7.312-7.548v-76.718a31.224 31.224 0 0 1 14.625-26.428v-21.044a31.227 31.227 0 1 0-62.453 0v110.078z" transform="rotate(45 926.263 -343.056)" style="fill:url(#kkbscieg0a)"/>
            <path data-name="Trazado 67" d="M941.6 685.237v76.718a7.554 7.554 0 0 0 7.312 7.548c.084 0 .164.013.249.013a7.561 7.561 0 0 0 7.561-7.561v-76.718a16.1 16.1 0 0 1 32.209 0v11.907a31.193 31.193 0 0 1 12.312-24.826 31.225 31.225 0 0 0-59.643 12.919z" transform="rotate(45 1220.183 -466.084)" style="fill:url(#kkbscieg0a)"/>
            <path data-name="Trazado 68" d="M1160.209 740.225v64.811a7.561 7.561 0 1 0 15.122 0v-64.811a16.1 16.1 0 1 1 32.208 0v26.455a31.239 31.239 0 0 1 15.115-26.739 31.223 31.223 0 0 0-62.445.284z" transform="rotate(45 1357.825 -651.294)" style="fill:url(#kkbscieg0a)"/>
            <path data-name="Trazado 69" d="M1378.818 862.417v38.356a7.561 7.561 0 0 0 15.122 0v-38.356a16.1 16.1 0 1 1 32.209 0v38.398a7.56 7.56 0 0 0 15.12-.042v-38.356a31.227 31.227 0 0 0-62.454 0z" transform="rotate(45 1559.028 -810.178)" style="fill:url(#kkbscieg0a)"/>
        </g>
    </g>
</svg>
