<svg xmlns="http://www.w3.org/2000/svg" width="437.704" height="624.901" viewBox="0 0 437.704 624.901">
    <defs>
        <linearGradient id="l9jr3alj4a" x1=".5" x2=".5" y2="1" gradientUnits="objectBoundingBox">
            <stop offset="0" stop-color="#fa462b"/>
            <stop offset="1" stop-color="#fd0792"/>
        </linearGradient>
    </defs>
    <g data-name="Grupo 28">
        <g data-name="Grupo 27">
            <path data-name="Trazado 63" d="M721.7 312.854a10.539 10.539 0 0 0 14.263-4.3 86.83 86.83 0 1 0-147.69 8.586 10.534 10.534 0 0 0 17.277-12.057 65.751 65.751 0 1 1 111.85-6.492 10.536 10.536 0 0 0 4.3 14.263z" transform="rotate(-150 439.753 454.33)" style="fill:url(#l9jr3alj4a)"/>
            <path data-name="Trazado 64" d="M533.744 1095.922v-8.673l-55.724-97.678a22.45 22.45 0 0 1 19.454-33.558A22.511 22.511 0 0 1 517 967.344l16.743 29.346v-12.028a10.473 10.473 0 0 1 .692-3.73V955.5a43.493 43.493 0 0 0-74.717 44.51l82.8 145.142c-.121-.329-.254-.65-.373-.979a141.533 141.533 0 0 1-8.401-48.251z" transform="rotate(-150 327.754 706.61)" style="fill:url(#l9jr3alj4a)"/>
            <path data-name="Trazado 65" d="M1004.622 1107.062a10.533 10.533 0 0 1-21.065.058v95.271a121.5 121.5 0 0 1-121.362 121.361h-1.37a121.3 121.3 0 0 1-121.361-121.361v-91.6a10.529 10.529 0 0 1-20.377-3.73V1087.4a10.476 10.476 0 0 0-.692 3.73v111.26a141.539 141.539 0 0 0 8.4 48.251c.119.33.253.65.374.978a142.749 142.749 0 0 0 133.653 93.2h1.37c78.536 0 142.43-63.892 142.43-142.428v-111.32z" transform="rotate(-150 405.815 784.583)" style="fill:url(#l9jr3alj4a)"/>
            <path data-name="Trazado 66" d="M720.69 631.611v19.661a10.534 10.534 0 0 0 21.068 0V478.246a22.438 22.438 0 1 1 44.876 0v173.027a10.534 10.534 0 0 0 10.534 10.534c.116 0 .231-.014.345-.018a10.525 10.525 0 0 1-10.187-10.516V544.386a43.5 43.5 0 0 1 20.376-36.82v-29.32a43.506 43.506 0 1 0-87.012 0v153.365z" transform="rotate(-150 467.68 556.903)" style="fill:url(#l9jr3alj4a)"/>
            <path data-name="Trazado 67" d="M941.6 697.516V804.4a10.525 10.525 0 0 0 10.188 10.517c.117 0 .229.018.346.018a10.534 10.534 0 0 0 10.534-10.535V697.516a22.437 22.437 0 0 1 44.874 0v16.589a43.459 43.459 0 0 1 17.154-34.588 43.5 43.5 0 0 0-83.1 18z" transform="rotate(-150 524.302 654.137)" style="fill:url(#l9jr3alj4a)"/>
            <path data-name="Trazado 68" d="M1160.209 752.505v90.3a10.534 10.534 0 1 0 21.069 0v-90.3a22.437 22.437 0 1 1 44.874 0v36.858a43.523 43.523 0 0 1 21.058-37.254 43.5 43.5 0 0 0-87 .4z" transform="rotate(-150 595.49 693.79)" style="fill:url(#l9jr3alj4a)"/>
            <path data-name="Trazado 69" d="M1378.818 874.7v53.439a10.534 10.534 0 0 0 21.069 0V874.7a22.437 22.437 0 1 1 44.875 0v53.498a10.533 10.533 0 0 0 21.066-.059V874.7a43.506 43.506 0 0 0-87.013 0z" transform="rotate(-150 660.392 756.91)" style="fill:url(#l9jr3alj4a)"/>
        </g>
    </g>
</svg>
