<svg xmlns="http://www.w3.org/2000/svg" width="55.846" height="55.846" viewBox="0 0 55.846 55.846">
    <g data-name="Grupo 200" transform="translate(-633.728 -205.336)">
        <circle data-name="Elipse 11" cx="27.923" cy="27.923" r="27.923" transform="translate(633.728 205.336)" style="fill:#eb148d"/>
        <g data-name="Grupo 199">
            <g data-name="Grupo 197">
                <path data-name="Trazado 196" d="m653.918 211.392-13.17 15.094a1.1 1.1 0 0 0 .832 1.828h32.336a1.1 1.1 0 0 0 .832-1.828l-13.17-15.094a5.085 5.085 0 0 0-7.66 0z" transform="translate(3.902 2.495)" style="fill:#fff"/>
            </g>
            <g data-name="Grupo 198">
                <path data-name="Trazado 197" d="M671.493 223.231v14.72a1.1 1.1 0 0 1-1.1 1.1h-27.18a1.1 1.1 0 0 1-1.1-1.1v-14.72z" transform="translate(4.849 10.35)" style="fill:#fff"/>
            </g>
        </g>
    </g>
</svg>
