<svg xmlns="http://www.w3.org/2000/svg" width="186.852" height="151.414" viewBox="0 0 186.852 151.414">
    <g data-name="Grupo 56">
        <path data-name="Trazado 111" d="M0 0h60.617v146.414H0z" transform="translate(2.5 2.5)" style="fill:#fec82f"/>
        <path data-name="Rectángulo 85" transform="translate(32.809 2.5)" style="fill:#c99a03" d="M0 0h30.309v146.414H0z"/>
        <path data-name="Rectángulo 86" transform="translate(2.5 2.5)" style="stroke-linecap:round;stroke-linejoin:round;stroke-width:5px;stroke:#3f4a47;fill:none" d="M0 0h60.617v146.414H0z"/>
        <g data-name="Grupo 44">
            <path data-name="Línea 2" transform="translate(18.121 19.598)" style="stroke-linecap:round;stroke-linejoin:round;stroke-width:5px;stroke:#3f4a47;fill:none" d="M0 0h30.308"/>
            <path data-name="Línea 3" transform="translate(18.121 31.876)" style="stroke-linecap:round;stroke-linejoin:round;stroke-width:5px;stroke:#3f4a47;fill:none" d="M0 0h30.308"/>
            <path data-name="Línea 4" transform="translate(18.121 44.155)" style="stroke-linecap:round;stroke-linejoin:round;stroke-width:5px;stroke:#3f4a47;fill:none" d="M0 0h30.308"/>
        </g>
        <path data-name="Rectángulo 87" transform="translate(19.986 57.137)" style="fill:#fff;stroke-linecap:round;stroke-linejoin:round;stroke-width:5px;stroke:#3f4a47" d="M0 0h25.645v15.846H0z"/>
        <path data-name="Trazado 102" d="M637.972 932.663a4.43 4.43 0 1 1-4.43-4.429 4.429 4.429 0 0 1 4.43 4.429z" transform="translate(-616.354 -839.238)" style="fill:#fff"/>
        <g data-name="Grupo 47">
            <g data-name="Grupo 45">
                <path data-name="Trazado 103" d="M619.551 1104.242a2.421 2.421 0 0 1-2.422-2.421v-12.755a2.422 2.422 0 0 1 4.843 0v12.755a2.421 2.421 0 0 1-2.421 2.421z" transform="translate(-606.61 -968.038)" style="fill:#fff"/>
            </g>
            <g data-name="Grupo 46">
                <path data-name="Trazado 104" d="M619.551 1021.021a2.421 2.421 0 0 1-2.422-2.421v-6.619a2.422 2.422 0 1 1 4.843 0v6.619a2.421 2.421 0 0 1-2.421 2.421z" transform="translate(-606.61 -905.361)" style="fill:#fff"/>
            </g>
        </g>
        <path data-name="Rectángulo 88" transform="translate(63.118 2.5)" style="stroke:#3f4a47;fill:#fec82f" d="M0 0h60.617v146.414H0z"/>
        <path data-name="Rectángulo 89" transform="translate(93.426 2.5)" style="fill:#c99a03" d="M0 0h30.308v146.414H0z"/>
        <path data-name="Rectángulo 90" transform="translate(63.118 2.5)" style="stroke-linecap:round;stroke-linejoin:round;stroke-width:5px;stroke:#3f4a47;fill:none" d="M0 0h60.617v146.414H0z"/>
        <g data-name="Grupo 48">
            <path data-name="Línea 5" transform="translate(78.738 19.598)" style="stroke-linecap:round;stroke-linejoin:round;stroke-width:5px;stroke:#3f4a47;fill:none" d="M0 0h30.308"/>
            <path data-name="Línea 6" transform="translate(78.738 31.876)" style="stroke-linecap:round;stroke-linejoin:round;stroke-width:5px;stroke:#3f4a47;fill:none" d="M0 0h30.308"/>
            <path data-name="Línea 7" transform="translate(78.738 44.155)" style="stroke-linecap:round;stroke-linejoin:round;stroke-width:5px;stroke:#3f4a47;fill:none" d="M0 0h30.308"/>
        </g>
        <path data-name="Rectángulo 91" transform="translate(80.603 57.137)" style="fill:#fff;stroke-linecap:round;stroke-linejoin:round;stroke-width:5px;stroke:#3f4a47" d="M0 0h25.645v15.846H0z"/>
        <path data-name="Trazado 105" d="M962.257 941.394a4.43 4.43 0 1 1-4.43-4.429 4.429 4.429 0 0 1 4.43 4.429z" transform="translate(-880.022 -846.337)" style="fill:#fff"/>
        <g data-name="Grupo 51">
            <g data-name="Grupo 49">
                <path data-name="Trazado 106" d="M953.606 1108.191a2.421 2.421 0 0 1-2.422-2.421v-12.755a2.422 2.422 0 0 1 4.843 0v12.755a2.421 2.421 0 0 1-2.421 2.421z" transform="translate(-878.222 -971.248)" style="fill:#fff"/>
            </g>
            <g data-name="Grupo 50">
                <path data-name="Trazado 107" d="M953.606 1024.966a2.421 2.421 0 0 1-2.422-2.42v-6.619a2.422 2.422 0 1 1 4.843 0v6.619a2.421 2.421 0 0 1-2.421 2.42z" transform="translate(-878.222 -908.568)" style="fill:#fff"/>
            </g>
        </g>
        <path data-name="Rectángulo 92" transform="translate(123.735 2.5)" style="fill:#fec82f" d="M0 0h60.617v146.414H0z"/>
        <path data-name="Rectángulo 93" transform="translate(154.043 2.5)" style="fill:#c99a03" d="M0 0h30.309v146.414H0z"/>
        <path data-name="Rectángulo 94" transform="translate(123.735 2.5)" style="stroke-linecap:round;stroke-linejoin:round;stroke-width:5px;stroke:#3f4a47;fill:none" d="M0 0h60.617v146.414H0z"/>
        <g data-name="Grupo 52">
            <path data-name="Línea 8" transform="translate(139.355 19.598)" style="stroke-linecap:round;stroke-linejoin:round;stroke-width:5px;stroke:#3f4a47;fill:none" d="M0 0h30.308"/>
            <path data-name="Línea 9" transform="translate(139.355 31.876)" style="stroke-linecap:round;stroke-linejoin:round;stroke-width:5px;stroke:#3f4a47;fill:none" d="M0 0h30.308"/>
            <path data-name="Línea 10" transform="translate(139.355 44.155)" style="stroke-linecap:round;stroke-linejoin:round;stroke-width:5px;stroke:#3f4a47;fill:none" d="M0 0h30.308"/>
        </g>
        <path data-name="Rectángulo 95" transform="translate(141.22 57.137)" style="fill:#fff;stroke-linecap:round;stroke-linejoin:round;stroke-width:5px;stroke:#3f4a47" d="M0 0h25.646v15.846H0z"/>
        <path data-name="Trazado 108" d="M1286.539 941.394a4.43 4.43 0 1 1-4.43-4.429 4.429 4.429 0 0 1 4.43 4.429z" transform="translate(-1143.687 -846.337)" style="fill:#fff"/>
        <g data-name="Grupo 55">
            <g data-name="Grupo 53">
                <path data-name="Trazado 109" d="M1280.1 1099.663a2.421 2.421 0 0 1-2.423-2.421v-12.755a2.422 2.422 0 0 1 4.843 0v12.755a2.42 2.42 0 0 1-2.42 2.421z" transform="translate(-1143.687 -964.314)" style="fill:#fff"/>
            </g>
            <g data-name="Grupo 54">
                <path data-name="Trazado 110" d="M1280.1 1016.44a2.422 2.422 0 0 1-2.423-2.421v-6.619a2.422 2.422 0 1 1 4.843 0v6.619a2.421 2.421 0 0 1-2.42 2.421z" transform="translate(-1143.687 -901.635)" style="fill:#fff"/>
            </g>
        </g>
    </g>
</svg>
