<svg xmlns="http://www.w3.org/2000/svg" width="207.985" height="130.958" viewBox="0 0 207.985 130.958">
    <g data-name="Grupo 32" transform="translate(1152.761 -1368.231)">
        <circle data-name="Elipse 1" cx="43.93" cy="43.93" r="43.93" transform="rotate(-11.661 6236.136 6082.385)" style="fill:#ffecac"/>
        <path data-name="Trazado 71" d="M-976.518 1473.4a46.713 46.713 0 0 1-46.66-46.659 46.713 46.713 0 0 1 46.66-46.66 46.713 46.713 0 0 1 46.66 46.66 46.713 46.713 0 0 1-46.66 46.659zm0-87.861a41.248 41.248 0 0 0-41.2 41.2 41.248 41.248 0 0 0 41.2 41.2 41.248 41.248 0 0 0 41.2-41.2 41.248 41.248 0 0 0-41.2-41.203z" transform="translate(-72.244 -6.604)" style="fill:#3f4a47"/>
        <g data-name="Grupo 30" transform="translate(-1149.5 1392.029)">
            <circle data-name="Elipse 2" cx="43.93" cy="43.93" r="43.93" transform="rotate(-5.701 186.478 -1002.23)" style="fill:#e05665"/>
            <circle data-name="Elipse 3" cx="43.93" cy="43.93" r="43.93" transform="rotate(-13.402 86.662 10.182)" style="fill:#e05665"/>
        </g>
        <g data-name="Grupo 31">
            <path data-name="Trazado 72" d="M-868.447 1529.469a46.713 46.713 0 0 1-46.66-46.66 46.713 46.713 0 0 1 46.66-46.66 46.713 46.713 0 0 1 46.66 46.66 46.713 46.713 0 0 1-46.66 46.66zm0-87.861a41.247 41.247 0 0 0-41.2 41.2 41.248 41.248 0 0 0 41.2 41.2 41.248 41.248 0 0 0 41.2-41.2 41.247 41.247 0 0 0-41.2-41.199z" transform="translate(-132.495 -37.866)" style="fill:#3f4a47"/>
            <path data-name="Trazado 73" d="M-1084.589 1529.469a46.713 46.713 0 0 1-46.66-46.66 46.713 46.713 0 0 1 46.66-46.66 46.712 46.712 0 0 1 46.656 46.66 46.712 46.712 0 0 1-46.656 46.66zm0-87.861a41.248 41.248 0 0 0-41.2 41.2 41.248 41.248 0 0 0 41.2 41.2 41.245 41.245 0 0 0 41.2-41.2 41.245 41.245 0 0 0-41.2-41.199z" transform="translate(-11.993 -37.866)" style="fill:#3f4a47"/>
        </g>
        <path data-name="Trazado 74" d="M-944.26 1491.721a13.106 13.106 0 0 0-2.931-6.835 22.569 22.569 0 0 0-5.166-3.746 28.483 28.483 0 0 1-5.069-3.364 11.883 11.883 0 0 1-3.976-5.528c-4.143-9.779 6.39-15.409-.343-25.9a13.424 13.424 0 0 0-5.784-4.7 19.876 19.876 0 0 0-6.277-.987 28.868 28.868 0 0 1-6.07-.648 12.634 12.634 0 0 1-6.044-3.106c-8.153-6.8-1.383-16.61-12.2-22.863a13.487 13.487 0 0 0-7.317-1.5 19.121 19.121 0 0 0-6.024 2.018 29.132 29.132 0 0 1-5.679 2.246 13.187 13.187 0 0 1-6.787.063c-10.371-2.232-9.013-13.965-21.5-14.565-6.171.382-9.071 3.249-11.543 6.714a30.158 30.158 0 0 1-3.952 4.738 11.124 11.124 0 0 1-2.6 1.755 12.825 12.825 0 0 1-3.384 1.406c-5.257 1.216-8.668-.53-12.468-2.289-3.811-1.885-7.792-3.237-13.338-.5-10.788 6.285-4.007 16.068-12.139 22.886a12.887 12.887 0 0 1-6.033 3.119 28.971 28.971 0 0 1-6.074.653 19.318 19.318 0 0 0-6.269 1 13.431 13.431 0 0 0-5.784 4.7c-6.693 10.5 3.839 16.107-.28 25.88a11.993 11.993 0 0 1-3.96 5.519 28.453 28.453 0 0 1-5.068 3.358 22.574 22.574 0 0 0-5.164 3.739 13.2 13.2 0 0 0-2.919 6.822 10.982 10.982 0 0 0 1.18 7.334 21.524 21.524 0 0 0 3.848 4.93 17.67 17.67 0 0 0 2.139 2.058 7.993 7.993 0 0 0 2.169 1.1c1.4.457 2.37.385 3.022.643H-956.6c.653-.259 1.623-.19 3.026-.655a7.957 7.957 0 0 0 2.166-1.111 19.045 19.045 0 0 0 2.136-2.075 21.584 21.584 0 0 0 3.846-4.949 11.02 11.02 0 0 0 1.166-7.36z" transform="translate(-3.438 -18.997)" style="fill:#41af64"/>
        <path data-name="Trazado 75" d="M-960.045 1507.171h-177.439a2.719 2.719 0 0 1-1-.191c-.083-.016-.25-.033-.445-.059a13.324 13.324 0 0 1-2.426-.527 10.712 10.712 0 0 1-2.888-1.457 9.55 9.55 0 0 1-1.809-1.648 9.46 9.46 0 0 0-.62-.643 24.41 24.41 0 0 1-4.407-5.663 13.673 13.673 0 0 1-1.447-9.091 15.721 15.721 0 0 1 3.523-8.1 24.884 24.884 0 0 1 5.878-4.338l.524-.3a23.046 23.046 0 0 0 4.071-2.71 9.539 9.539 0 0 0 3.231-4.424c1.546-3.682.63-6.441-.531-9.932-1.444-4.332-3.237-9.724 1.078-16.495a16.244 16.244 0 0 1 7.051-5.755 20.029 20.029 0 0 1 6.685-1.174l1.1-.056a23.717 23.717 0 0 0 4.9-.537 10.321 10.321 0 0 0 4.855-2.465c3.069-2.578 3.521-5.449 4.091-9.079.709-4.512 1.592-10.129 8.547-14.181 6.652-3.293 11.573-1.743 15.921.409l.425.2c3.411 1.582 6.1 2.822 10.218 1.879a10.064 10.064 0 0 0 2.6-1.094 9.114 9.114 0 0 0 2.169-1.444 24.342 24.342 0 0 0 3.2-3.817l.376-.508c2.693-3.774 6.22-7.361 13.571-7.815 8.33.382 11.755 4.915 14.507 8.554 2.218 2.934 3.969 5.255 7.74 6.065a10.736 10.736 0 0 0 5.607-.056 24.211 24.211 0 0 0 4.592-1.8l1-.465a19.8 19.8 0 0 1 6.474-2.05 16.121 16.121 0 0 1 8.758 1.767c7.14 4.12 8.036 9.737 8.755 14.25.58 3.633 1.035 6.5 3.992 8.969a10.093 10.093 0 0 0 4.931 2.545 23.587 23.587 0 0 0 4.922.55l.639.026a22.047 22.047 0 0 1 7.15 1.174 16.154 16.154 0 0 1 6.982 5.617c4.44 6.913 2.657 12.312 1.223 16.65-1.154 3.5-2.067 6.26-.564 9.807a9.37 9.37 0 0 0 3.158 4.453 23.511 23.511 0 0 0 4.219 2.841l.521.3a25.093 25.093 0 0 1 5.762 4.213 15.814 15.814 0 0 1 3.659 8.283 13.708 13.708 0 0 1-1.437 9.072 24.294 24.294 0 0 1-4.3 5.577c-.319.307-.527.534-.735.762a9.951 9.951 0 0 1-1.882 1.711 10.212 10.212 0 0 1-2.815 1.417 13.263 13.263 0 0 1-2.409.531c-.191.03-.359.046-.508.086a2.43 2.43 0 0 1-.943.166zm-177.03-5.459h176.618a9.807 9.807 0 0 1 1.088-.2 7.953 7.953 0 0 0 1.49-.32 5.128 5.128 0 0 0 1.434-.732 6.1 6.1 0 0 0 .943-.9c.3-.333.613-.663.93-.959a19.049 19.049 0 0 0 3.289-4.213 8.255 8.255 0 0 0 .9-5.607.768.768 0 0 1-.013-.083 10.531 10.531 0 0 0-2.3-5.462 20.315 20.315 0 0 0-4.46-3.164l-.514-.293a27.859 27.859 0 0 1-5.03-3.418 14.334 14.334 0 0 1-4.707-6.622c-2.248-5.3-.807-9.659.462-13.505 1.342-4.061 2.4-7.269-.534-11.847a10.67 10.67 0 0 0-4.519-3.646 16.845 16.845 0 0 0-5.109-.772l-.887-.042a27.789 27.789 0 0 1-6.016-.709 15.2 15.2 0 0 1-7.216-3.755c-4.407-3.672-5.126-8.2-5.766-12.19-.672-4.229-1.2-7.565-5.93-10.3a10.647 10.647 0 0 0-5.7-1.147 15.462 15.462 0 0 0-4.7 1.585l-.939.435a28.276 28.276 0 0 1-5.7 2.182 15.961 15.961 0 0 1-8.132.033c-5.6-1.2-8.356-4.849-10.789-8.069-2.591-3.425-4.635-6.131-10.117-6.395-4.526.3-6.833 2.268-9.19 5.571l-.392.531a28.834 28.834 0 0 1-3.966 4.661 13.7 13.7 0 0 1-3.224 2.172 14.668 14.668 0 0 1-3.886 1.592c-6.009 1.391-9.978-.448-13.815-2.228l-.481-.224c-3.329-1.641-6.4-2.792-10.983-.527-4.552 2.66-5.076 6-5.742 10.225-.627 3.992-1.339 8.521-5.855 12.305a15.494 15.494 0 0 1-7.113 3.672 28.1 28.1 0 0 1-6.026.709l-1.035.049a15.728 15.728 0 0 0-4.921.778 10.749 10.749 0 0 0-4.618 3.791c-2.818 4.427-1.75 7.631-.4 11.689 1.279 3.84 2.73 8.195.438 13.63a14.519 14.519 0 0 1-4.763 6.586 27.411 27.411 0 0 1-4.909 3.306l-.511.29a20.138 20.138 0 0 0-4.565 3.274 10.546 10.546 0 0 0-2.179 5.33 8.258 8.258 0 0 0 .9 5.666 19.047 19.047 0 0 0 3.389 4.3c.2.184.511.511.811.841a6.983 6.983 0 0 0 .821.807 5.853 5.853 0 0 0 1.539.8 8.069 8.069 0 0 0 1.513.32 9.87 9.87 0 0 1 1.087.2z" transform="translate(0 -15.567)" style="fill:#3f4a47"/>
        <path data-name="Trazado 76" d="M-1114.31 1536.617c9.535.442 24.474 1.031 42.878 1.305 32.515.484 29.906-.7 50.248 0 14.11.486 31.874 1.151 56.731 0 11.126-.515 20.4-1.264 24.173-7.331 3.593-5.77.524-13.626-4.722-26.542-2.667-6.565-6.045-15.407-13.508-25.589-4.528-6.178-11.052-15.088-22.692-22.456-13.928-8.815-27.383-10.489-36.2-11.489-9.507-1.078-26.925-2.846-46.465 5.222-24.343 10.052-36.138 28.827-40.522 36.034a91.366 91.366 0 0 0-12.92 39.544" transform="translate(-19.765 -41.999)" style="fill:#fec82f"/>
        <path data-name="Trazado 77" d="M-952.161 1535.763h-160.179a10.817 10.817 0 0 1-10.8-10.806 91.047 91.047 0 0 1 90.893-91.124 91 91 0 0 1 90.893 90.894 10.871 10.871 0 0 1-10.807 11.036zm-80.088-95.179a84.238 84.238 0 0 0-84.143 84.143 4.113 4.113 0 0 0 4.051 4.285h160.179a4.06 4.06 0 0 0 4.054-4.054 84.287 84.287 0 0 0-84.142-84.374z" transform="translate(-16.513 -36.574)" style="fill:#3f4a47"/>
        <path data-name="Trazado 78" d="M-987.219 1475.115a3.381 3.381 0 0 1-3.125-2.1 3.378 3.378 0 0 1 1.846-4.4 80.609 80.609 0 0 1 8.287-2.871 3.4 3.4 0 0 1 4.173 2.321 3.379 3.379 0 0 1-2.32 4.173 73.425 73.425 0 0 0-7.582 2.627 3.353 3.353 0 0 1-1.279.25z" transform="translate(-90.409 -54.297)" style="fill:#f3f9f9"/>
        <path data-name="Trazado 79" d="M-1049.779 1505.052a3.374 3.374 0 0 1-2.268-.874 3.381 3.381 0 0 1-.234-4.77 80.386 80.386 0 0 1 17.441-14.481 3.365 3.365 0 0 1 4.641 1.108 3.37 3.37 0 0 1-1.108 4.641 73.61 73.61 0 0 0-15.971 13.268 3.371 3.371 0 0 1-2.501 1.108z" transform="translate(-55.532 -64.779)" style="fill:#f3f9f9"/>
        <path data-name="Trazado 80" d="M-767.993 1589.312a3.374 3.374 0 0 1-3.375-3.376v-11.145a72.432 72.432 0 0 0-13.977-39.536 3.375 3.375 0 0 1 .729-4.717 3.368 3.368 0 0 1 4.717.728 79.236 79.236 0 0 1 15.279 43.374v11.3a3.374 3.374 0 0 1-3.373 3.372z" transform="translate(-204.475 -90.123)" style="fill:#3f4a47"/>
        <path data-name="Trazado 81" d="M-800.628 1515.951a3.365 3.365 0 0 1-2.485-1.091 73.277 73.277 0 0 0-4.3-4.3 3.376 3.376 0 0 1-.194-4.77 3.382 3.382 0 0 1 4.77-.194c1.628 1.5 3.2 3.079 4.691 4.694a3.377 3.377 0 0 1-.2 4.77 3.364 3.364 0 0 1-2.282.891z" transform="translate(-191.932 -76.087)" style="fill:#3f4a47"/>
        <path data-name="Trazado 82" d="M-1040 1595.316a9.887 9.887 0 0 1-9.873-9.876 3.374 3.374 0 0 1 3.376-3.375 3.374 3.374 0 0 1 3.375 3.375 3.127 3.127 0 0 0 3.122 3.125 3.127 3.127 0 0 0 3.125-3.125 3.374 3.374 0 0 1 3.376-3.375 3.373 3.373 0 0 1 3.375 3.375 9.887 9.887 0 0 1-9.876 9.876z" transform="translate(-57.363 -119.215)" style="fill:#3f4a47"/>
        <path data-name="Trazado 83" d="M-837.41 1595.316a9.887 9.887 0 0 1-9.876-9.876 3.374 3.374 0 0 1 3.375-3.375 3.374 3.374 0 0 1 3.376 3.375 3.127 3.127 0 0 0 3.125 3.125 3.127 3.127 0 0 0 3.125-3.125 3.374 3.374 0 0 1 3.375-3.375 3.374 3.374 0 0 1 3.376 3.375 9.887 9.887 0 0 1-9.876 9.876z" transform="translate(-170.306 -119.215)" style="fill:#3f4a47"/>
        <path data-name="Trazado 84" d="M-976.121 1543.139a9.887 9.887 0 0 1-9.876-9.876 3.373 3.373 0 0 1 3.375-3.375 3.374 3.374 0 0 1 3.376 3.375 3.128 3.128 0 0 0 3.125 3.125 3.127 3.127 0 0 0 3.122-3.125 3.374 3.374 0 0 1 3.375-3.375 3.373 3.373 0 0 1 3.375 3.375 9.886 9.886 0 0 1-9.872 9.876z" transform="translate(-92.973 -90.126)" style="fill:#3f4a47"/>
        <path data-name="Trazado 85" d="M-892.619 1515.688a9.887 9.887 0 0 1-9.876-9.876 3.373 3.373 0 0 1 3.376-3.375 3.373 3.373 0 0 1 3.375 3.375 3.127 3.127 0 0 0 3.125 3.125 3.127 3.127 0 0 0 3.122-3.125 3.373 3.373 0 0 1 3.375-3.375 3.373 3.373 0 0 1 3.376 3.375 9.887 9.887 0 0 1-9.873 9.876z" transform="translate(-139.526 -74.821)" style="fill:#3f4a47"/>
        <path data-name="Trazado 86" d="M-922 1602.661a9.887 9.887 0 0 1-9.876-9.876 3.374 3.374 0 0 1 3.376-3.375 3.374 3.374 0 0 1 3.375 3.375 3.127 3.127 0 0 0 3.125 3.125 3.127 3.127 0 0 0 3.125-3.125 3.374 3.374 0 0 1 3.376-3.375 3.374 3.374 0 0 1 3.375 3.375 9.887 9.887 0 0 1-9.876 9.876z" transform="translate(-123.146 -123.31)" style="fill:#3f4a47"/>
    </g>
</svg>
