<svg xmlns="http://www.w3.org/2000/svg" width="165.063" height="165.063" viewBox="0 0 165.063 165.063">
    <g data-name="Grupo 43" transform="translate(1521.718 -1438.486)">
        <path data-name="Rectángulo 81" transform="translate(-1405.416 1518.42)" style="stroke:#3f4a47;stroke-linecap:round;stroke-linejoin:round;stroke-width:4px;fill:#f5f9ff" d="M0 0h10.391v83.129H0z"/>
        <circle data-name="Elipse 4" cx="41.565" cy="41.565" r="41.565" transform="translate(-1441.785 1440.486)" style="fill:#91d9ff;stroke:#3f4a47;stroke-linecap:round;stroke-linejoin:round;stroke-width:4px"/>
        <g data-name="Grupo 35">
            <path data-name="Trazado 92" d="M-1361.937 1457.773h-14.288a5.2 5.2 0 0 0-5.2 5.2v46.761a5.2 5.2 0 0 0 5.2 5.2h0a5.2 5.2 0 0 0 5.2-5.2v-18.185h9.092a16.885 16.885 0 0 0 16.886-16.885h0a16.886 16.886 0 0 0-16.89-16.891zm0 23.381h-9.092v-12.99h9.092a6.5 6.5 0 0 1 6.495 6.495h0a6.5 6.5 0 0 1-6.495 6.495z" transform="translate(-34.387 -4.298)" style="stroke:#3f4a47;stroke-linecap:round;stroke-linejoin:round;stroke-width:4px;fill:#f5f9ff"/>
        </g>
        <path data-name="Línea 1" transform="translate(-1519.718 1601.549)" style="fill:none;stroke:#3f4a47;stroke-linecap:round;stroke-linejoin:round;stroke-width:4px" d="M0 0h161.063"/>
        <g data-name="Grupo 42">
            <g data-name="Grupo 41">
                <g data-name="Grupo 40">
                    <g data-name="Grupo 39">
                        <g data-name="Grupo 38">
                            <path data-name="Trazado 93" d="M-1390.615 1581.09h-5.2l-8.659 6.928v3.464h13.855a3.464 3.464 0 0 0 3.464-3.464v-3.464a3.464 3.464 0 0 0-3.46-3.464z" transform="translate(-28.656 -34.96)" style="fill:#c99a03;stroke:#3f4a47;stroke-linecap:round;stroke-linejoin:round;stroke-width:4px"/>
                            <path data-name="Trazado 94" d="M-1516.254 1581.09h5.195l8.66 6.928v3.464h-13.854a3.464 3.464 0 0 1-3.464-3.464v-3.464a3.464 3.464 0 0 1 3.463-3.464z" transform="translate(0 -34.96)" style="fill:#c99a03;stroke:#3f4a47;stroke-linecap:round;stroke-linejoin:round;stroke-width:4px"/>
                            <g data-name="Grupo 37">
                                <g data-name="Grupo 36">
                                    <path data-name="Trazado 95" d="M-1511.462 1626.459h0a5.6 5.6 0 0 0 5.012 3.1h79.666a5.6 5.6 0 0 0 5.013-3.1h0a34.537 34.537 0 0 0 3.646-15.447v-1.4a10.392 10.392 0 0 0-3.043-7.348l-7.348-7.347h-76.2l-7.348 7.347a10.391 10.391 0 0 0-3.043 7.348v1.4a34.536 34.536 0 0 0 3.645 15.447z" transform="translate(-1.146 -38.399)" style="fill:#ffc200;stroke:#3f4a47;stroke-linecap:round;stroke-linejoin:round;stroke-width:4px"/>
                                    <path data-name="Trazado 96" d="M-1445.834 1622.747h-41.566l-26.956-13.424a10.379 10.379 0 0 0-.754 3.873v1.4a34.538 34.538 0 0 0 3.646 15.447h0a5.6 5.6 0 0 0 5.013 3.1h79.665a5.6 5.6 0 0 0 5.013-3.1h0a34.539 34.539 0 0 0 3.646-15.447v-1.4a10.379 10.379 0 0 0-.754-3.873z" transform="translate(-1.146 -41.98)" style="fill:#c99a03;stroke:#3f4a47;stroke-linecap:round;stroke-linejoin:round;stroke-width:4px"/>
                                    <path data-name="Rectángulo 82" d="M8.659 0h0a8.659 8.659 0 0 1 8.659 8.659v1.732h0H0h0V8.659A8.659 8.659 0 0 1 8.659 0z" transform="rotate(180 -713.965 800.774)" style="fill:#646d8b;stroke:#3f4a47;stroke-linecap:round;stroke-linejoin:round;stroke-width:4px"/>
                                    <path data-name="Rectángulo 83" d="M8.659 0h0a8.659 8.659 0 0 1 8.659 8.659v1.732h0H0h0V8.659A8.659 8.659 0 0 1 8.659 0z" transform="rotate(180 -745.138 800.774)" style="fill:#646d8b;stroke:#3f4a47;stroke-linecap:round;stroke-linejoin:round;stroke-width:4px"/>
                                    <path data-name="Trazado 97" d="M-1483.534 1558.04h40.712a13.855 13.855 0 0 1 13.441 10.494l4.3 17.216h-76.2l4.3-17.216a13.856 13.856 0 0 1 13.447-10.494z" transform="translate(-4.584 -29.229)" style="fill:#d2f2ff;stroke:#3f4a47;stroke-linecap:round;stroke-linejoin:round;stroke-width:4px"/>
                                </g>
                                <path data-name="Trazado 98" d="M-1445.29 1605.311h-28.9a6.927 6.927 0 0 1-4.9-2.029l-8.363-8.362h55.42l-8.363 8.362a6.926 6.926 0 0 1-4.894 2.029z" transform="translate(-8.023 -38.399)" style="fill:#ffc200;stroke:#3f4a47;stroke-linecap:round;stroke-linejoin:round;stroke-width:4px"/>
                                <path data-name="Trazado 99" d="M-1483.96 1623.75h-17.319v-1.732a8.66 8.66 0 0 1 8.659-8.66h0a8.659 8.659 0 0 1 8.659 8.66z" transform="translate(-4.584 -42.984)" style="fill:#ffc55e;stroke:#3f4a47;stroke-linecap:round;stroke-linejoin:round;stroke-width:4px"/>
                                <path data-name="Trazado 100" d="M-1422.909 1623.75h17.318v-1.732a8.659 8.659 0 0 0-8.659-8.66h0a8.66 8.66 0 0 0-8.659 8.66z" transform="translate(-24.071 -42.984)" style="fill:#ffc55e;stroke:#3f4a47;stroke-linecap:round;stroke-linejoin:round;stroke-width:4px"/>
                            </g>
                            <path data-name="Trazado 101" d="M-1441.349 1591.481a10.392 10.392 0 0 1 10.391-10.391 10.391 10.391 0 0 1 10.391 10.391" transform="translate(-19.486 -34.96)" style="fill:none;stroke:#3f4a47;stroke-linecap:round;stroke-linejoin:round;stroke-width:4px"/>
                        </g>
                    </g>
                </g>
            </g>
        </g>
    </g>
</svg>
