<svg xmlns="http://www.w3.org/2000/svg" width="170.601" height="174.667" viewBox="0 0 170.601 174.667">
    <defs>
        <style>
            .cls-1{fill:#ee158f}
        </style>
    </defs>
    <g id="Grupo_34" data-name="Grupo 34" transform="translate(-285 -309)">
        <path id="Trazado_60" data-name="Trazado 60" class="cls-1" d="M285 309v156.878h50.486V309zm5.93 80.98a5 5 0 1 1 5 5 5 5 0 0 1-5-5zm33.714 59.973H295v-2.372h29.648zm.169-6.438h-29.648v-2.372h29.648zm0-6.438h-29.648v-2.372h29.648zm0-93.517h-29.648v-2.372h29.648zm.169-6.438h-29.648v-2.372h29.648zm0-6.438h-29.648v-2.372h29.648z"/>
        <path id="Trazado_61" data-name="Trazado 61" class="cls-1" d="M645 309v156.878h50.486V309zm5.591 81.827a5 5 0 1 1 5 5 5 5 0 0 1-5-5zM684.3 450.8h-29.643v-2.372H684.3zm.169-6.438h-29.643v-2.372h29.648zm0-6.438h-29.643v-2.372h29.648zm0-93.517h-29.643v-2.372h29.648zm.169-6.438H655V335.6h29.648zm0-6.438H655v-2.371h29.648z" transform="translate(-299.011)"/>
        <path id="Trazado_62" data-name="Trazado 62" class="cls-1" d="M994 309v156.878h50.486V309zm5.421 81.827a5 5 0 1 1 5 5 5 5 0 0 1-5-5zm33.714 59.973h-29.648v-2.372h29.648zm.169-6.438h-29.648v-2.372h29.644zm0-6.438h-29.648v-2.372h29.644zm0-93.517h-29.648v-2.372h29.644zm.169-6.438h-29.648V335.6h29.648zm0-6.438h-29.648v-2.371h29.648z" transform="translate(-588.885)"/>
        <path id="Rectángulo_42" data-name="Rectángulo 42" class="cls-1" transform="translate(292.163 468.695)" d="M0 0h6.238v14.971H0z"/>
        <path id="Rectángulo_43" data-name="Rectángulo 43" class="cls-1" transform="translate(320.858 468.695)" d="M0 0h6.238v14.971H0z"/>
        <path id="Rectángulo_44" data-name="Rectángulo 44" class="cls-1" transform="translate(352.048 468.695)" d="M0 0h7.486v14.971H0z"/>
        <path id="Rectángulo_45" data-name="Rectángulo 45" class="cls-1" transform="translate(380.744 468.695)" d="M0 0h7.486v14.971H0z"/>
        <path id="Rectángulo_46" data-name="Rectángulo 46" class="cls-1" transform="translate(411.934 468.695)" d="M0 0h6.238v14.971H0z"/>
        <path id="Rectángulo_47" data-name="Rectángulo 47" class="cls-1" transform="translate(440.629 468.695)" d="M0 0h7.486v14.971H0z"/>
    </g>
</svg>
