<svg data-name="Grupo 256" xmlns="http://www.w3.org/2000/svg" width="182.884" height="95.296" viewBox="0 0 182.884 95.296">
    <g data-name="Grupo 255">
        <rect data-name="Rectángulo 154" width="33.463" height="27.632" rx="1.591" transform="translate(74.71 54.212)" style="fill:#ee1d93"/>
        <path data-name="Trazado 237" d="M193.123 622.427c-45.421 0-91.434 10.818-91.434 31.479v20.054c0 15.584 26.165 25.559 58.5 29.526v2.146a12.1 12.1 0 0 0 12.091 12.091h41.692a12.1 12.1 0 0 0 12.091-12.091v-2.146c32.338-3.966 58.5-13.941 58.5-29.526v-20.054c.01-20.661-46.004-31.479-91.44-31.479zm21.177 79.194a7.1 7.1 0 0 1-7.088 7.09h-28.164a7.1 7.1 0 0 1-7.09-7.09v-22.332a7.1 7.1 0 0 1 7.09-7.09h28.165a7.1 7.1 0 0 1 7.088 7.09zm11.767-25.338v-1.006a12.1 12.1 0 0 0-12.091-12.091h-41.691a12.1 12.1 0 0 0-12.091 12.091v1.006c-20.246-2.546-35.446-7.266-44.342-12.358 13.217-7.532 40.3-14.326 77.271-14.326s64.069 6.793 77.286 14.326c-8.895 5.092-24.095 9.812-44.341 12.358z" transform="translate(-101.689 -622.427)" style="fill:#ee1d93"/>
    </g>
</svg>
